<svg xmlns="http://www.w3.org/2000/svg" xmlns:xlink="http://www.w3.org/1999/xlink" viewBox="0,0,256,256" width="200px" height="200px"><g transform=""><g fill="none" fill-rule="nonzero" stroke="none" stroke-width="1" stroke-linecap="butt" stroke-linejoin="none" stroke-miterlimit="10" stroke-dasharray="" stroke-dashoffset="0" font-family="none" font-weight="none" font-size="none" text-anchor="none" style="mix-blend-mode: normal"><path transform="scale(2.56,2.56)" d="M18,88c-0.404,0 -0.769,-0.243 -0.924,-0.617c-0.155,-0.374 -0.069,-0.804 0.217,-1.09c3.63,-3.63 3.706,-9.199 3.707,-15.66c-7.743,-6.039 -12,-14.06 -12,-22.633c0,-17.645 18.393,-32 41,-32c22.607,0 41,14.355 41,32c0,17.645 -18.393,32 -41,32c-3.879,0 -7.711,-0.421 -11.4,-1.252c-6.015,8.033 -15.444,9.252 -20.6,9.252z" id="strokeMainSVG" fill="#dddddd" stroke="#dddddd" stroke-linejoin="round"></path><g transform="scale(2.56,2.56)" stroke="none" stroke-linejoin="miter"><path d="M22,70.217c0,6.783 0,12.783 -4,16.783c6.709,0 15,-2 20.18,-9.376c3.736,0.894 7.705,1.376 11.82,1.376c22.091,0 40,-13.879 40,-31c0,-17.121 -17.909,-31 -40,-31c-22.091,0 -40,13.879 -40,31c0,8.671 4.595,16.514 12,22.141z" fill-opacity="0.87843" fill="#000000"></path><circle cx="50" cy="48" r="3.5" fill="#78a2d2"></circle><circle cx="33" cy="48" r="3.5" fill="#78a2d2"></circle><circle cx="67" cy="48" r="3.5" fill="#78a2d2"></circle><path d="M18,88c-0.404,0 -0.769,-0.243 -0.924,-0.617c-0.155,-0.374 -0.069,-0.804 0.217,-1.09c3.63,-3.63 3.706,-9.199 3.707,-15.66c-7.743,-6.039 -12,-14.06 -12,-22.633c0,-17.645 18.393,-32 41,-32c22.607,0 41,14.355 41,32c0,17.645 -18.393,32 -41,32c-3.879,0 -7.711,-0.421 -11.4,-1.252c-6.015,8.033 -15.444,9.252 -20.6,9.252zM50,18c-21.505,0 -39,13.458 -39,30c0,8.078 4.122,15.658 11.605,21.345c0.249,0.188 0.395,0.483 0.395,0.796v0.077c0,5.901 0,11.519 -2.823,15.706c5.067,-0.356 12.451,-2.135 17.184,-8.874c0.236,-0.335 0.652,-0.492 1.051,-0.398c3.737,0.894 7.636,1.348 11.588,1.348c21.505,0 39,-13.458 39,-30c0,-16.542 -17.495,-30 -39,-30z" fill-opacity="0.05098" fill="#000000"></path><path d="M20.298,63c-0.139,0 -0.277,-0.058 -0.375,-0.17c-3.875,-4.407 -5.923,-9.535 -5.923,-14.83c0,-14.888 16.149,-27 36,-27c9.38,0 18.264,2.697 25.016,7.596c0.224,0.162 0.273,0.475 0.111,0.698c-0.162,0.223 -0.477,0.272 -0.698,0.11c-6.583,-4.774 -15.259,-7.404 -24.429,-7.404c-19.299,0 -35,11.663 -35,26c0,5.048 1.962,9.947 5.674,14.17c0.182,0.207 0.162,0.523 -0.045,0.706c-0.095,0.083 -0.213,0.124 -0.331,0.124z" fill-opacity="0.05098" fill="#000000"></path><path d="M50,75c-1.184,0 -2.374,-0.044 -3.537,-0.129c-0.275,-0.021 -0.482,-0.261 -0.462,-0.536c0.02,-0.275 0.257,-0.492 0.535,-0.462c1.139,0.084 2.304,0.127 3.464,0.127c19.299,0 35,-11.663 35,-26c0,-4.445 -1.546,-8.836 -4.471,-12.698c-0.167,-0.22 -0.124,-0.533 0.097,-0.7c0.221,-0.167 0.534,-0.124 0.7,0.097c3.058,4.036 4.674,8.636 4.674,13.301c0,14.888 -16.149,27 -36,27z" fill-opacity="0.05098" fill="#000000"></path><path d="M79.702,34c-0.139,0 -0.277,-0.058 -0.375,-0.17c-0.292,-0.333 -0.595,-0.66 -0.907,-0.981c-0.193,-0.198 -0.188,-0.515 0.01,-0.707c0.198,-0.193 0.516,-0.188 0.707,0.01c0.324,0.333 0.638,0.674 0.941,1.019c0.182,0.207 0.162,0.523 -0.045,0.706c-0.096,0.082 -0.214,0.123 -0.331,0.123z" fill-opacity="0.05098" fill="#000000"></path><path d="M77.212,31.5c-0.119,0 -0.238,-0.042 -0.333,-0.127c-0.229,-0.204 -0.462,-0.406 -0.7,-0.604c-0.212,-0.178 -0.24,-0.493 -0.062,-0.704c0.176,-0.213 0.492,-0.24 0.704,-0.063c0.246,0.206 0.487,0.414 0.724,0.626c0.206,0.184 0.224,0.5 0.04,0.706c-0.099,0.109 -0.236,0.166 -0.373,0.166z" fill-opacity="0.05098" fill="#000000"></path><path d="M50,52c-2.206,0 -4,-1.794 -4,-4c0,-2.206 1.794,-4 4,-4c2.206,0 4,1.794 4,4c0,2.206 -1.794,4 -4,4zM50,45c-1.654,0 -3,1.346 -3,3c0,1.654 1.346,3 3,3c1.654,0 3,-1.346 3,-3c0,-1.654 -1.346,-3 -3,-3z" fill-opacity="0.05098" fill="#000000"></path><path d="M33,52c-2.206,0 -4,-1.794 -4,-4c0,-2.206 1.794,-4 4,-4c2.206,0 4,1.794 4,4c0,2.206 -1.794,4 -4,4zM33,45c-1.654,0 -3,1.346 -3,3c0,1.654 1.346,3 3,3c1.654,0 3,-1.346 3,-3c0,-1.654 -1.346,-3 -3,-3z" fill-opacity="0.05098" fill="#000000"></path><path d="M67,52c-2.206,0 -4,-1.794 -4,-4c0,-2.206 1.794,-4 4,-4c2.206,0 4,1.794 4,4c0,2.206 -1.794,4 -4,4zM67,45c-1.654,0 -3,1.346 -3,3c0,1.654 1.346,3 3,3c1.654,0 3,-1.346 3,-3c0,-1.654 -1.346,-3 -3,-3z" fill-opacity="0.05098" fill="#000000"></path></g></g><g fill="none" fill-rule="nonzero" stroke="none" stroke-width="1" stroke-linecap="butt" stroke-linejoin="miter" stroke-miterlimit="10" stroke-dasharray="" stroke-dashoffset="0" font-family="none" font-weight="none" font-size="none" text-anchor="none" style="mix-blend-mode: normal"><g transform="translate(67.84,62.72) scale(3.88129,3.88129)" id="overlay"><path transform="translate(15.5,15.5)" d="M-14.5,0c0,-8.00813 6.49187,-14.5 14.5,-14.5c8.00813,0 14.5,6.49187 14.5,14.5c0,8.00813 -6.49187,14.5 -14.5,14.5c-8.00813,0 -14.5,-6.49187 -14.5,-14.5z" fill="#ceccbe"></path><g fill="#1f212b"><path d="M15.5,31c-8.547,0 -15.5,-6.953 -15.5,-15.5c0,-8.547 6.953,-15.5 15.5,-15.5c8.547,0 15.5,6.953 15.5,15.5c0,8.547 -6.953,15.5 -15.5,15.5zM15.5,2c-7.444,0 -13.5,6.056 -13.5,13.5c0,7.444 6.056,13.5 13.5,13.5c7.444,0 13.5,-6.056 13.5,-13.5c0,-7.444 -6.056,-13.5 -13.5,-13.5z"></path></g><path transform="translate(15.5,18)" d="M-8,5.5v-11h16v11z" fill="#fefdef"></path><g fill="#1f212b"><path d="M13.5,20h-3c-0.276,0 -0.5,-0.224 -0.5,-0.5v-3c0,-0.276 0.224,-0.5 0.5,-0.5h3c0.276,0 0.5,0.224 0.5,0.5v3c0,0.276 -0.224,0.5 -0.5,0.5zM11,19h2v-2h-2z"></path></g><g fill="#1f212b"><path d="M20.5,20h-3c-0.276,0 -0.5,-0.224 -0.5,-0.5v-3c0,-0.276 0.224,-0.5 0.5,-0.5h3c0.276,0 0.5,0.224 0.5,0.5v3c0,0.276 -0.224,0.5 -0.5,0.5zM18,19h2v-2h-2z"></path></g><path transform="translate(15.5,11)" d="M-8,1.5v-3h16v3z" fill="#f15b6c"></path><g fill="#1f212b"><path d="M23.5,24h-16c-0.276,0 -0.5,-0.224 -0.5,-0.5v-14c0,-0.276 0.224,-0.5 0.5,-0.5h16c0.276,0 0.5,0.224 0.5,0.5v14c0,0.276 -0.224,0.5 -0.5,0.5zM8,23h15v-13h-15z"></path></g><g fill="#1f212b"><path d="M23.5,13h-16c-0.276,0 -0.5,-0.224 -0.5,-0.5c0,-0.276 0.224,-0.5 0.5,-0.5h16c0.276,0 0.5,0.224 0.5,0.5c0,0.276 -0.224,0.5 -0.5,0.5z"></path></g><g fill="#1f212b"><path d="M17.5,9.5c-0.276,0 -0.5,-0.224 -0.5,-0.5v-1.5c0,-0.276 0.224,-0.5 0.5,-0.5c0.276,0 0.5,0.224 0.5,0.5v1.5c0,0.276 -0.224,0.5 -0.5,0.5z"></path></g><g fill="#1f212b"><path d="M21.5,9.5c-0.276,0 -0.5,-0.224 -0.5,-0.5v-1.5c0,-0.276 0.224,-0.5 0.5,-0.5c0.276,0 0.5,0.224 0.5,0.5v1.5c0,0.276 -0.224,0.5 -0.5,0.5z"></path></g><g fill="#1f212b"><path d="M13.5,9.5c-0.276,0 -0.5,-0.224 -0.5,-0.5v-1.5c0,-0.276 0.224,-0.5 0.5,-0.5c0.276,0 0.5,0.224 0.5,0.5v1.5c0,0.276 -0.224,0.5 -0.5,0.5z"></path></g><g fill="#1f212b"><path d="M9.5,9.5c-0.276,0 -0.5,-0.224 -0.5,-0.5v-1.5c0,-0.276 0.224,-0.5 0.5,-0.5c0.276,0 0.5,0.224 0.5,0.5v1.5c0,0.276 -0.224,0.5 -0.5,0.5z"></path></g></g></g></g></svg>